<svg xmlns="http://www.w3.org/2000/svg" viewBox="0 0 24 24" fill="currentColor"><path d="M18.93 4.43A16.46 16.46 0 0014.3 3c-.18.33-.38.78-.52 1.13A15.48 15.48 0 0010 4.13a12.58 12.58 0 00-.52-1.13 14.99 14.99 0 00-4.65 1.43C2.11 8.45 1.3 12.4 1.7 16.28c1.5 1.04 3.25 1.8 5.11 2.27.41-.56.78-1.15 1.1-1.77a10.18 10.18 0 01-1.73-.85c.14-.1.28-.2.42-.3a11.7 11.7 0 0010.8 0c.14.1.28.2.42.3-.55.34-1.13.62-1.74.86.32.62.69 1.21 1.1 1.77a16.63 16.63 0 005.11-2.27c.46-4.49-.79-8.4-3.37-11.85zM8.52 14.17c-1.06 0-1.93-.98-1.93-2.17s.85-2.17 1.93-2.17c1.09 0 1.95.98 1.93 2.17 0 1.19-.84 2.17-1.93 2.17zm6.96 0c-1.06 0-1.93-.98-1.93-2.17s.85-2.17 1.93-2.17c1.09 0 1.95.98 1.93 2.17 0 1.19-.84 2.17-1.93 2.17z"/></svg>