<svg xmlns="http://www.w3.org/2000/svg" viewBox="0 0 24 24" fill="currentColor"><path d="M14.5 2c-.83 0-1.5.67-1.5 1.5v3c0 .83.67 1.5 1.5 1.5s1.5-.67 1.5-1.5v-3c0-.83-.67-1.5-1.5-1.5z"/><path d="M20.5 8H17V3.5c0-.83.67-1.5 1.5-1.5s1.5.67 1.5 1.5V8z"/><path d="M9.5 14c.83 0 1.5-.67 1.5-1.5v-3c0-.83-.67-1.5-1.5-1.5S8 8.67 8 9.5v3c0 .83.67 1.5 1.5 1.5z"/><path d="M3.5 8H8v3.5c0-.83-.67-1.5-1.5-1.5S5 10.67 5 11.5V8z"/><path d="M9.5 22c.83 0 1.5-.67 1.5-1.5v-3c0-.83-.67-1.5-1.5-1.5S8 16.67 8 17.5v3c0 .83.67 1.5 1.5 1.5z"/><path d="M3.5 16H8v3.5c0-.83-.67-1.5-1.5-1.5S5 18.67 5 19.5V16z"/><path d="M14.5 10c-.83 0-1.5.67-1.5 1.5v3c0 .83.67 1.5 1.5 1.5s1.5-.67 1.5-1.5v-3c0-.83-.67-1.5-1.5-1.5z"/><path d="M20.5 16H17v-3.5c0 .83.67 1.5 1.5 1.5s1.5-.67 1.5-1.5V16z"/></svg>